inDegrees=yes
name=ik_S56_A08_T02
DataType=double
version=3
OpenSimVersion=4.3-2021-08-27-4bc7ad9
endheader
time	pelvis_tilt	pelvis_list	pelvis_rotation	pelvis_tx	pelvis_ty	pelvis_tz	hip_flexion_r	hip_adduction_r	hip_rotation_r	knee_angle_r	knee_angle_r_beta	ankle_angle_r	subtalar_angle_r	mtp_angle_r	hip_flexion_l	hip_adduction_l	hip_rotation_l	knee_angle_l	knee_angle_l_beta	ankle_angle_l	subtalar_angle_l	mtp_angle_l	lumbar_extension	lumbar_bending	lumbar_rotation	arm_flex_r	arm_add_r	arm_rot_r	elbow_flex_r	pro_sup_r	wrist_flex_r	wrist_dev_r	arm_flex_l	arm_add_l	arm_rot_l	elbow_flex_l	pro_sup_l	wrist_flex_l	wrist_dev_l
11.59999999999984	-5.221575756765344	-2.950524648199909	27.66429756667252	0	0.9399999999999999	0	45.28147470922433	-12.07144749115503	-12.04997801471972	48.98537357550996	0.854956054212076	0	0	0	45.28147470922433	-12.07144749115503	-12.04997801471972	48.98537357550996	0.854956054212076	0	0	0	-7.223412606442288	2.327020807280359	-0.2872967597552676	32.71479768024451	-10.71022932072565	19.43146635995118	39.68045296650056	118.7265356680076	0	0	88.11290275471332	1.248675523690425	21.87221169404227	101.0241181301909	123.7720779239576	0	0
11.61999999999984	-5.215085858853985	-2.971515380096012	27.65256776197485	0	0.9399999999999999	0	45.2813862150125	-12.06917885984972	-12.04853676720648	48.98665702610572	0.8549784546507587	0	0	0	45.2813862150125	-12.06917885984972	-12.04853676720648	48.98665702610572	0.8549784546507587	0	0	0	-7.227603009200714	2.305712642076669	-0.2953142624968699	32.71421259854924	-10.65913922188316	19.42387311920069	39.68218897182249	118.7250769279067	0	0	88.47250024603656	1.246358933012879	21.86884824114694	100.9859900858701	123.9365506188766	0	0
11.63999999999984	-5.207172913995812	-2.992168055003948	27.63541735765054	0	0.9399999999999999	0	45.2819034240421	-12.08089731703156	-12.05646712538888	48.97909832426141	0.8548465304163988	0	0	0	45.2819034240421	-12.08089731703156	-12.05646712538888	48.97909832426141	0.8548465304163988	0	0	0	-7.231946260318784	2.287522881673926	-0.3007532359804366	32.72469376858258	-10.65379504048329	19.4355954735144	39.63051294767583	118.7602076947435	0	0	88.49980411211089	1.228534927612396	21.89656003798434	101.0932200802096	124.1248042332669	0	0
11.65999999999984	-5.181786304065534	-2.995058109145978	27.62383452578129	0	0.9399999999999999	0	45.2818783418297	-12.08026752494166	-12.05606436265658	48.97946995804561	0.8548530166495448	0	0	0	45.2818783418297	-12.08026752494166	-12.05606436265658	48.97946995804561	0.8548530166495448	0	0	0	-7.211238026225671	2.274389277882389	-0.3104825003985862	32.66559181728827	-10.66142154535476	19.4439081406515	39.61367487413195	118.7607052931362	0	0	88.70150202200281	1.179215813707224	21.86412892153455	101.0740472402074	124.1269293038584	0	0
11.67999999999984	-5.191698185050029	-3.010026347953602	27.5948940701867	0	0.9399999999999999	0	45.2815532515494	-12.07166561013294	-12.05068998214009	48.98414470770054	0.8549346064227298	0	0	0	45.2815532515494	-12.07166561013294	-12.05068998214009	48.98414470770054	0.8549346064227298	0	0	0	-7.22622156565375	2.264489358187178	-0.3171917726226782	32.70603130877428	-10.63826605175985	19.47792092166406	39.60842217356196	118.7809649774246	0	0	88.81295784503844	1.153149147133201	21.84880317650013	101.024129623556	124.0390347021816	0	0
11.69999999999984	-5.183373233870723	-3.013090412286946	27.57210762312308	0	0.9399999999999999	0	45.28095988799129	-12.0584438905346	-12.04172088629578	48.99287209701618	0.8550869281013911	0	0	0	45.28095988799129	-12.0584438905346	-12.04172088629578	48.99287209701618	0.8550869281013911	0	0	0	-7.218183205432017	2.253640000090776	-0.3143028914521013	32.69035124933612	-10.65544067224382	19.54102713992564	39.62421455546649	118.7495031682714	0	0	88.82751266719617	1.203570243420801	21.86453459471318	100.9837161446594	123.9493359498747	0	0
11.71999999999984	-5.18007699346918	-3.023725921206736	27.54544889920281	0	0.9399999999999999	0	45.28093370250372	-12.05610747955841	-12.04072860824088	48.99311377947402	0.8550911462560246	0	0	0	45.28093370250372	-12.05610747955841	-12.04072860824088	48.99311377947402	0.8550911462560246	0	0	0	-7.220244762049708	2.24311413392138	-0.3187570346047188	32.71193359044454	-10.6447087630272	19.56096275827443	39.61119825479081	118.7581912658216	0	0	88.78358683440855	1.252788145611175	21.88615684511221	100.9717628517464	123.9227148376141	0	0
11.73999999999984	-5.18349398458568	-3.036174448984835	27.53101828885562	0	0.9399999999999999	0	45.28127839005511	-12.06108270860263	-12.0450214830921	48.98782666549696	0.8549988687091968	0	0	0	45.28127839005511	-12.06108270860263	-12.0450214830921	48.98782666549696	0.8549988687091968	0	0	0	-7.229976251983647	2.235540146253871	-0.3171826623068628	32.74386661080441	-10.63454307447488	19.55446082262697	39.56226828941434	118.7825311070852	0	0	88.72378362721365	1.285516178420276	21.89757217217625	100.9747756344594	123.9531907056991	0	0
11.75999999999984	-5.15682803768632	-3.04492350604253	27.51992647901152	0	0.9399999999999999	0	45.28119146384632	-12.05887290542779	-12.04361193464965	48.98909212329068	0.8550209551142423	0	0	0	45.28119146384632	-12.05887290542779	-12.04361193464965	48.98909212329068	0.8550209551142423	0	0	0	-7.208775655884607	2.211348116311005	-0.2945114955872083	32.69021909457351	-10.60737677077498	19.52703699288123	39.50452987083896	118.7607709595544	0	0	88.50876489945453	1.378111691046006	21.97700046795236	101.0846986590679	124.1106945736274	0	0
11.77999999999984	-5.155099563755714	-3.050806334679334	27.50056672210908	0	0.9399999999999999	0	45.28111945086721	-12.05703667142417	-12.04244176953256	48.99013713409246	0.8550391939934523	0	0	0	45.28111945086721	-12.05703667142417	-12.04244176953256	48.99013713409246	0.8550391939934523	0	0	0	-7.208776263357507	2.202512552590852	-0.2789820325160901	32.68457106529581	-10.60816585142957	19.52201163397493	39.50013723050169	118.7622191875611	0	0	88.26502864112064	1.486694633688808	21.97010650657359	100.980341160611	124.1300179125651	0	0
11.79999999999984	-5.151684236769807	-3.052226042450021	27.47729795554223	0	0.9399999999999999	0	45.28102590457249	-12.05464708676834	-12.04091970597067	48.99149156178004	0.8550628332160806	0	0	0	45.28102590457249	-12.05464708676834	-12.04091970597067	48.99149156178004	0.8550628332160806	0	0	0	-7.205087967486272	2.196562390833621	-0.2619114364054672	32.66540811280996	-10.61994356882583	19.53891169619528	39.5122807505475	118.738927277589	0	0	87.94567099872758	1.614254930861814	21.90060868020424	101.0385367355897	124.2093716837622	0	0
